<?xml version="1.0" encoding="utf-8"?>
<!-- Generator: Adobe Illustrator 26.0.3, SVG Export Plug-In . SVG Version: 6.00 Build 0)  -->
<svg version="1.1" id="Layer_1" xmlns="http://www.w3.org/2000/svg" xmlns:xlink="http://www.w3.org/1999/xlink" x="0px" y="0px"
	 viewBox="0 0 250 250" style="enable-background:new 0 0 250 250;" xml:space="preserve">
<style type="text/css">
	.st0{fill:#94C11F;}
	.st1{fill:#794192;}
</style>
<g>
	<g>
		<path class="st0" d="M31.85,98.17c-1.12,3.56-1.49,5.53-1.76,8.72h-0.48c-0.11-2.61-0.69-5.69-1.76-8.72l-3.67-10.05H1.91v35.47
			h13.56V97.53h0.21c0.32,2.71,0.64,4.04,1.6,7.23l6.91,18.82h11.17l6.81-18.82c0.8-2.5,1.22-4.31,1.54-7.23h0.21v26.05h13.56V88.12
			H35.37L31.85,98.17z"/>
		<path class="st0" d="M75.12,88.12l-14.2,35.47h14.2l1.33-3.24h14.46l1.49,3.24h14.84l-14.2-35.47H75.12z M78.9,111.3l4.79-13.03
			l4.57,13.03H78.9z"/>
		<polygon class="st0" points="156.1,88.12 137.71,88.12 123.88,101.46 123.88,88.12 110.32,88.12 110.32,123.58 123.88,123.58 
			123.88,114.6 130.1,108.69 139.88,123.58 157.06,123.58 141.37,100.77 		"/>
		<path class="st0" d="M249.04,119.12c-0.32-9.09-0.91-10.16-6.22-11.7c2.61-0.59,3.83-1.11,4.95-2.34
			c1.28-1.43,2.02-3.88,2.02-6.75c0-3.51-1.17-6.32-3.35-8.03c-2.18-1.76-4.52-2.18-12.6-2.18h-26.27v35.47h13.56v-12.71h7.71
			c5.74,0,6.27,0.64,6.54,8.03c0.16,2.82,0.21,3.24,0.43,4.68H250C249.2,122.26,249.14,121.83,249.04,119.12z M233.93,102.8
			c-0.64,0.43-1.6,0.59-3.83,0.59h-8.99v-6.97h9.09c3.88,0,5.1,0.85,5.1,3.4C235.32,101.15,234.78,102.21,233.93,102.8z"/>
		<path class="st0" d="M211.4,56.47c-0.85-10.5-11-13.55-19.84-11.85c-19.87,3.91-39.43,18.15-54.22,31.37
			c-0.65,0.55,0.14,1.61,0.85,1.19c9.09-4.84,18.03-9.75,27.15-14.07c8.53-3.77,26.99-12.82,35.53-8.78
			c1.87,1.32,2.01,3.17,2.03,6.05c-0.68,8.35-4.2,16.55-8.23,24.11c-0.55,1.05-1.11,2.09-1.68,3.1c-0.1,0.17-0.2,0.35-0.3,0.53
			c-0.05,0.1-0.11,0.19-0.16,0.29c-0.03,0.05-0.05,0.09-0.09,0.14c-0.23,0.35-2.18,3.29-4.73,6.57c1.11-2.62,1.91-5.02,2.47-7h-29.8
			v35.46h41.8v-9.04h-28.24v-4.42h25.71v-9.04h-25.71v-3.93h28.24v-9.03h-4.68C204.36,78.66,211.78,68.04,211.4,56.47z"/>
	</g>
	<g>
		<path class="st1" d="M163.24,136.92c5.05,0,7.39,1.54,8.5,5.64h15.58c-0.53-4.2-1.64-6.71-3.82-8.83
			c-4.2-3.93-10.69-5.85-20.32-5.85c-8.34,0-13.98,1.43-18.45,4.73c-3.98,2.92-6.16,7.82-6.16,13.93c0,6.16,2.13,11.06,6.32,14.35
			c4.2,3.35,9.3,4.68,17.97,4.68c8.83,0,13.83-1.06,18.3-3.88c3.98-2.49,5.63-5.31,6.16-10.48h-15.58
			c-0.91,1.98-1.44,2.82-2.29,3.57c-1.28,1.11-3.62,1.76-6.21,1.76c-6.17,0-9.73-3.72-9.73-10.21
			C153.51,140.16,156.84,136.92,163.24,136.92z"/>
		<polygon class="st1" points="249.99,138.04 249.99,129 192.15,129 192.15,164.47 249.99,164.47 249.99,155.43 205.71,155.43 
			205.71,151.02 247.46,151.02 247.46,141.97 205.71,141.97 205.71,138.04 		"/>
		<path class="st1" d="M106.52,129l-14.2,35.47h14.2l1.33-3.24h14.46l1.49,3.24h14.84L124.44,129H106.52z M110.29,152.19l4.79-13.03
			l4.57,13.03H110.29z"/>
		<path class="st1" d="M46.27,153.09c0-4.42-2.23-7.6-6.54-9.25c-3.02-1.13-4.83-1.49-11.11-2.14c-10.96-1.11-12.12-1.43-12.12-3.19
			c0-1.43,1.76-2.34,4.57-2.34c3.52,0,5.53,1.01,6.39,3.25h17.7c-1.11-4.15-2.44-6.17-5.38-8.04c-3.61-2.34-9.2-3.51-16.74-3.51
			c-14.89,0-22.71,4.2-22.71,12.22c0,4.37,2.39,7.5,6.81,8.89c2.82,0.96,7.19,1.81,11.18,2.18c8.24,0.8,8.94,0.91,10.05,1.23
			c1.11,0.32,1.64,0.85,1.64,1.86c0,1.49-1.64,2.29-4.83,2.29c-3.35,0-5.11-0.75-6.32-2.72H0c0.48,4.42,2.03,6.71,5.85,8.78
			c3.57,1.96,9.31,2.97,16.92,2.97C38.66,165.58,46.27,161.54,46.27,153.09z"/>
		<path class="st1" d="M108.69,172.93c-9.1,4.84-18.03,9.75-27.15,14.06c-8.53,3.78-26.99,12.82-35.53,8.8
			c-1.87-1.32-2.01-3.19-2.03-6.05c0.68-8.26,4.12-16.37,8.09-23.86c0.25-0.48,0.5-0.93,0.75-1.41c0.35-0.66,0.71-1.31,1.06-1.94
			c1.27-2.19,2.52-4.42,4.12-6.39c-1.51,2.7-2.35,5.89-2.81,8.33h9.67v-11.91H77.9c6.65,0,8.82-0.38,11.28-1.81
			c3.07-1.81,4.73-5.26,4.73-9.95c0-4.15-1.39-7.44-3.93-9.36c-2.55-1.86-5.38-2.44-12.19-2.44H51.32v30.37
			c-7.35,10.11-16.26,21.64-15.86,34.28c0.86,10.5,11.01,13.55,19.85,11.83c19.87-3.9,39.43-18.13,54.22-31.35
			C110.18,173.56,109.4,172.51,108.69,172.93z M64.86,136.91h8.56c4.57,0,5.95,0.8,5.95,3.4c0,1.44-0.58,2.55-1.53,3.14
			c-0.7,0.43-1.71,0.53-4.47,0.53h-8.51V136.91z"/>
	</g>
</g>
</svg>
